<!--
  Tiramisu category icon sprite
  Usage: <svg viewBox="0 0 24 24"><use href="/assets/tiramisu-category-icons.svg#groceries" /></svg>
  Pair each icon with a 40px rounded-square pastel tile; use #20212A for the stroke.
-->
<svg xmlns="http://www.w3.org/2000/svg" aria-hidden="true" style="display:none">
  <defs>
    <style>
      .ti { fill:none; stroke:#20212A; stroke-width:1.8; stroke-linecap:round; stroke-linejoin:round; }
      .ti-fill { fill:#20212A; stroke:none; }
    </style>

    <symbol id="rent-mortgage" viewBox="0 0 24 24" fill="none" stroke="#20212A" stroke-width="1.8" stroke-linecap="round" stroke-linejoin="round">
      <path fill="none" stroke="#20212A" stroke-width="1.8" stroke-linecap="round" stroke-linejoin="round" d="M3.5 10.5 12 3.75l8.5 6.75v9.25a1 1 0 0 1-1 1h-15a1 1 0 0 1-1-1Z"/>
      <path fill="none" stroke="#20212A" stroke-width="1.8" stroke-linecap="round" stroke-linejoin="round" d="M9.5 20.75v-6h5v6"/>
    </symbol>
    <symbol id="council-tax" viewBox="0 0 24 24" fill="none" stroke="#20212A" stroke-width="1.8" stroke-linecap="round" stroke-linejoin="round">
      <path fill="none" stroke="#20212A" stroke-width="1.8" stroke-linecap="round" stroke-linejoin="round" d="M3 9.25 12 4l9 5.25M5.25 10.5h13.5M4.5 20.5h15M6.5 10.5v8M10 10.5v8M14 10.5v8M17.5 10.5v8"/>
    </symbol>
    <symbol id="gas-electric" viewBox="0 0 24 24" fill="none" stroke="#20212A" stroke-width="1.8" stroke-linecap="round" stroke-linejoin="round">
      <path fill="none" stroke="#20212A" stroke-width="1.8" stroke-linecap="round" stroke-linejoin="round" d="m13 2.75-7 10h5l-1 8.5 8-11h-5Z"/>
    </symbol>
    <symbol id="water" viewBox="0 0 24 24" fill="none" stroke="#20212A" stroke-width="1.8" stroke-linecap="round" stroke-linejoin="round">
      <path fill="none" stroke="#20212A" stroke-width="1.8" stroke-linecap="round" stroke-linejoin="round" d="M12 3.25c-2.8 4.1-5.75 7.35-5.75 10.55a5.75 5.75 0 1 0 11.5 0C17.75 10.6 14.8 7.35 12 3.25Z"/>
      <path fill="none" stroke="#20212A" stroke-width="1.8" stroke-linecap="round" stroke-linejoin="round" d="M9.25 15.25c.35 1.1 1.2 1.8 2.45 2"/>
    </symbol>
    <symbol id="internet-mobile" viewBox="0 0 24 24" fill="none" stroke="#20212A" stroke-width="1.8" stroke-linecap="round" stroke-linejoin="round">
      <path fill="none" stroke="#20212A" stroke-width="1.8" stroke-linecap="round" stroke-linejoin="round" d="M4.25 9.25a11 11 0 0 1 15.5 0M7.25 12.25a6.75 6.75 0 0 1 9.5 0M10.25 15.25a2.5 2.5 0 0 1 3.5 0"/>
      <circle cx="12" cy="18.25" r="1.25" fill="#20212A" stroke="none"/>
    </symbol>
    <symbol id="insurance" viewBox="0 0 24 24" fill="none" stroke="#20212A" stroke-width="1.8" stroke-linecap="round" stroke-linejoin="round">
      <path fill="none" stroke="#20212A" stroke-width="1.8" stroke-linecap="round" stroke-linejoin="round" d="M12 3.25 19 6v5.7c0 4.55-2.85 7.35-7 9.05-4.15-1.7-7-4.5-7-9.05V6Z"/>
      <path fill="none" stroke="#20212A" stroke-width="1.8" stroke-linecap="round" stroke-linejoin="round" d="m8.75 12.25 2.05 2.05 4.5-4.5"/>
    </symbol>
    <symbol id="debt-payments" viewBox="0 0 24 24" fill="none" stroke="#20212A" stroke-width="1.8" stroke-linecap="round" stroke-linejoin="round">
      <rect fill="none" stroke="#20212A" stroke-width="1.8" stroke-linecap="round" stroke-linejoin="round" x="3.25" y="5.25" width="17.5" height="13.5" rx="2"/>
      <path fill="none" stroke="#20212A" stroke-width="1.8" stroke-linecap="round" stroke-linejoin="round" d="M3.5 9h17M7 14.25h3.25"/>
    </symbol>
    <symbol id="savings" viewBox="0 0 24 24" fill="none" stroke="#20212A" stroke-width="1.8" stroke-linecap="round" stroke-linejoin="round">
      <path fill="none" stroke="#20212A" stroke-width="1.8" stroke-linecap="round" stroke-linejoin="round" d="M16.25 6.5c-.95-1.05-2.25-1.6-3.95-1.6-2.65 0-4.4 1.7-4.4 4.15 0 2.05 1.35 3.55 1.35 5.05 0 1.9-1.3 3.15-3.25 3.95h10.25M6.8 12h7.4"/>
    </symbol>
    <symbol id="subscriptions" viewBox="0 0 24 24" fill="none" stroke="#20212A" stroke-width="1.8" stroke-linecap="round" stroke-linejoin="round">
      <path fill="none" stroke="#20212A" stroke-width="1.8" stroke-linecap="round" stroke-linejoin="round" d="M4.5 8.25v-2a2 2 0 0 1 2-2h11a2 2 0 0 1 2 2v2M4.5 15.75v2a2 2 0 0 0 2 2h11a2 2 0 0 0 2-2v-2"/>
      <path fill="none" stroke="#20212A" stroke-width="1.8" stroke-linecap="round" stroke-linejoin="round" d="M4.5 10.25h15v3.5h-15ZM12 10.25v3.5"/>
    </symbol>
    <symbol id="groceries" viewBox="0 0 24 24" fill="none" stroke="#20212A" stroke-width="1.8" stroke-linecap="round" stroke-linejoin="round">
      <path fill="none" stroke="#20212A" stroke-width="1.8" stroke-linecap="round" stroke-linejoin="round" d="M4 5.25h2l1.8 9.25h8.95l2-6.5H7.05M9 19.25a1.1 1.1 0 1 1-2.2 0 1.1 1.1 0 0 1 2.2 0ZM17.5 19.25a1.1 1.1 0 1 1-2.2 0 1.1 1.1 0 0 1 2.2 0Z"/>
    </symbol>
    <symbol id="transport" viewBox="0 0 24 24" fill="none" stroke="#20212A" stroke-width="1.8" stroke-linecap="round" stroke-linejoin="round">
      <path fill="none" stroke="#20212A" stroke-width="1.8" stroke-linecap="round" stroke-linejoin="round" d="m5.25 14.75 1.4-6.25a2 2 0 0 1 1.95-1.55h6.8a2 2 0 0 1 1.95 1.55l1.4 6.25v4h-2.5v-2h-8.5v2h-2.5Z"/>
      <path fill="none" stroke="#20212A" stroke-width="1.8" stroke-linecap="round" stroke-linejoin="round" d="M4.75 12.25h14.5M7.5 14.25h.01M16.5 14.25h.01"/>
    </symbol>
    <symbol id="health" viewBox="0 0 24 24" fill="none" stroke="#20212A" stroke-width="1.8" stroke-linecap="round" stroke-linejoin="round">
      <path fill="none" stroke="#20212A" stroke-width="1.8" stroke-linecap="round" stroke-linejoin="round" d="M12 20.5S4.5 16.15 4.5 9.8c0-2.35 1.65-4.05 3.9-4.05 1.5 0 2.85.85 3.6 2.05.75-1.2 2.1-2.05 3.6-2.05 2.25 0 3.9 1.7 3.9 4.05 0 6.35-7.5 10.7-7.5 10.7Z"/>
      <path fill="none" stroke="#20212A" stroke-width="1.8" stroke-linecap="round" stroke-linejoin="round" d="M7.5 12h2l1.05-2.15L12.25 14l1.2-2h3"/>
    </symbol>
    <symbol id="other" viewBox="0 0 24 24" fill="none" stroke="#20212A" stroke-width="1.8" stroke-linecap="round" stroke-linejoin="round">
      <circle cx="5" cy="12" r="1.25" fill="#20212A" stroke="none"/><circle cx="12" cy="12" r="1.25" fill="#20212A" stroke="none"/><circle cx="19" cy="12" r="1.25" fill="#20212A" stroke="none"/>
    </symbol>
    <symbol id="disposable-income" viewBox="0 0 24 24" fill="none" stroke="#20212A" stroke-width="1.8" stroke-linecap="round" stroke-linejoin="round">
      <rect x="7" y="8.1" width="10" height="7.8" rx="1.25" fill="none" stroke="#20212A" stroke-width="1.8" stroke-linecap="round" stroke-linejoin="round"/>
      <circle cx="12" cy="12" r="1.5" fill="none" stroke="#20212A" stroke-width="1.8"/>
      <path d="m7 10.4-3.3-2.15M7 12l-4-.55M7 13.6l-3.3 2.15M17 10.4l3.3-2.15M17 12l4-.55M17 13.6l3.3 2.15" fill="none" stroke="#20212A" stroke-width="1.8" stroke-linecap="round" stroke-linejoin="round"/>
    </symbol>
    <symbol id="salary" viewBox="0 0 24 24" fill="none" stroke="#20212A" stroke-width="1.8" stroke-linecap="round" stroke-linejoin="round">
      <rect x="3.5" y="8" width="13.5" height="9" rx="1.5" fill="none" stroke="#20212A" stroke-width="1.8" stroke-linecap="round" stroke-linejoin="round"/>
      <circle cx="10.25" cy="12.5" r="1.55" fill="none" stroke="#20212A" stroke-width="1.8"/>
      <path d="m13.25 7.25 5-5m0 0v3.5m0-3.5h-3.5" fill="none" stroke="#20212A" stroke-width="1.8" stroke-linecap="round" stroke-linejoin="round"/>
    </symbol>
  </defs>
</svg>
